<?xml version="1.0" encoding="UTF-8"?>
<svg version="1.1" viewBox="0 0 24 24" xmlns="http://www.w3.org/2000/svg">
 <path id="Shape" d="m23.409 10.944-10.353-10.353c-0.5961-0.59637-1.563-0.59637-2.1597 0l-2.1496 2.1501 2.7269 2.7272c0.63378-0.21418 1.3605-0.070449 1.8657 0.43456 0.50786 0.50837 0.6503 1.2412 0.4307 1.8773l2.6285 2.6283c0.63611-0.21935 1.3695-0.07767 1.8773 0.43121 0.70965 0.70939 0.70965 1.8595 0 2.5695-0.71017 0.71017-1.8601 0.71017-2.5705 0-0.53366-0.53418-0.66578-1.3186-0.39508-1.9762l-2.4515-2.4513v6.4506c0.1729 0.08568 0.33624 0.19973 0.4805 0.34347 0.70965 0.70965 0.70965 1.8595 0 2.5702-0.70965 0.70939-1.8604 0.70939-2.5697 0-0.70965-0.71068-0.70965-1.8606 0-2.5702 0.17548-0.17522 0.37857-0.30786 0.59533-0.39664v-6.5102c-0.21677-0.088514-0.41934-0.22012-0.59533-0.39638-0.53754-0.53727-0.66682-1.3264-0.39096-1.9865l-2.6884-2.6886-7.0991 7.0983c-0.59611 0.59689-0.59611 1.5638 0 2.1602l10.353 10.353c0.5961 0.5961 1.5628 0.5961 2.1597 0l10.305-10.305c0.59663-0.59637 0.59663-1.5638 0-2.1602" stroke-width="1.1856"/>
</svg>
