<?xml version="1.0" encoding="UTF-8"?>
<svg enable-background="new 0 0 512 512" version="1.1" viewBox="0 0 512 512" xml:space="preserve" xmlns="http://www.w3.org/2000/svg">

	
		<path d="m469.34 152.56v-40.223c0-26.694-21.648-48.341-48.342-48.341h-159.96l-85.333-42.667h-84.695c-26.694 0-48.341 21.647-48.341 48.341v82.887c-24.79 8.29-42.671 31.684-42.671 59.258v216.36c0 34.502 27.983 62.485 62.485 62.485h387.03c34.502 0 62.485-27.983 62.485-62.485v-216.36c1e-3 -27.571-17.876-50.962-42.661-59.255zm-384-82.889c0-3.13 2.545-5.675 5.675-5.675h74.623l85.333 42.667h170.03c3.13 0 5.675 2.545 5.675 5.675v36.992h-341.33v-79.659zm192 122.32h85.333v97.83l-27.582-27.582c-8.331-8.331-21.839-8.331-30.17 0l-27.582 27.582v-97.83zm192 236.18c0 10.938-8.881 19.819-19.819 19.819h-387.03c-10.938 0-19.819-8.881-19.819-19.819v-216.36c0-10.938 8.881-19.819 19.819-19.819h172.19v149.33c0 19.006 22.979 28.524 36.418 15.085l48.915-48.915 48.915 48.915c13.439 13.439 36.418 3.921 36.418-15.085v-149.33h44.177c10.938 0 19.819 8.881 19.819 19.819v216.36z"/>
	
















</svg>
